<?xml version="1.0" encoding="utf-8"?><svg xmlns="http://www.w3.org/2000/svg" xmlns:xlink="http://www.w3.org/1999/xlink"><symbol viewBox="0 0 18 19" id="6-dots" xmlns="http://www.w3.org/2000/svg"><path d="M7.5.283h10v3.13h-10zm0 7.435h10v3.13h-10zm0 7.434h10v3.13h-10zm-7.5 0h3v3.13H0zm0-7.434h3v3.13H0zM0 .283h3v3.13H0z"/></symbol><symbol viewBox="0 0 18 19" id="9-dots" xmlns="http://www.w3.org/2000/svg"><path d="M0 .283h3v3.13H0zm7.5 0h3v3.13h-3zm7.5 0h3v3.13h-3zM0 7.718h3v3.13H0zm7.5 0h3v3.13h-3zm7.5 0h3v3.13h-3zM0 15.152h3v3.13H0zm7.5 0h3v3.13h-3zm7.5 0h3v3.13h-3z"/></symbol><symbol viewBox="0 0 8 14" id="angle-left" xmlns="http://www.w3.org/2000/svg"><path d="M6.938 13.112L.94 7.152 6.938 1.19"/></symbol><symbol viewBox="0 0 20 10" id="back" xmlns="http://www.w3.org/2000/svg"><path d="M19.984 5.516H2.22l3.14 3.14-.703.703L.296 5 4.657.64l.703.704-3.14 3.14h17.765v1.032z"/></symbol><symbol viewBox="0 0 24 24" id="bars" xmlns="http://www.w3.org/2000/svg"><path d="M17 5h3v16h-3V5zM5 15h3v6H5v-6zm6-5h3v11h-3V10z"/></symbol><symbol viewBox="0 0 32 32" id="blank" xmlns="http://www.w3.org/2000/svg"><path d="M23.333 4v2h4V4a2 2 0 10-4 0zM20 16h8v4h-8v-4z"/><path d="M30 12.667H18A1.333 1.333 0 0016.665 14v16a1.334 1.334 0 001.333 1.333h12A1.334 1.334 0 0031.333 30V14a1.333 1.333 0 00-1.334-1.333zm-9.334 16.666h-1.333a.666.666 0 110-1.333h1.333a.667.667 0 110 1.333zm0-2.666h-1.333a.667.667 0 110-1.334h1.333a.666.666 0 110 1.334zm0-2.667h-1.333a.667.667 0 010-1.333h1.333a.667.667 0 010 1.333zm4 5.333h-1.333a.666.666 0 110-1.333h1.333a.667.667 0 110 1.333zm0-2.666h-1.333a.667.667 0 110-1.334h1.333a.666.666 0 110 1.334zm0-2.667h-1.333a.667.667 0 010-1.333h1.333a.667.667 0 010 1.333zm4 5.333h-1.333a.666.666 0 110-1.333h1.333a.667.667 0 110 1.333zm0-2.666h-1.333a.667.667 0 110-1.334h1.333a.666.666 0 110 1.334zm0-2.667h-1.333a.667.667 0 010-1.333h1.333a.667.667 0 010 1.333zm.667-3.333a.667.667 0 01-.667.666h-9.333a.666.666 0 01-.667-.666v-5.334a.667.667 0 01.667-.666h9.333a.667.667 0 01.667.666v5.334z"/><path d="M22 11.333v-8A2.667 2.667 0 0124.665.667H3.333A2.667 2.667 0 00.666 3.333v25.334h14.667V14a2.667 2.667 0 012.666-2.667h4zm-18-6h13.333a.667.667 0 110 1.334H3.999a.667.667 0 010-1.334zm9.333 18H3.999A.666.666 0 114 22h9.334a.667.667 0 110 1.333zm0-3.333H3.999a.667.667 0 010-1.333h9.334a.667.667 0 010 1.333zm0-3.333H3.999a.667.667 0 110-1.334h9.334a.666.666 0 110 1.334zm0-3.334H3.999A.666.666 0 114 12h9.334a.667.667 0 110 1.333zm4-3.333H3.999a.667.667 0 010-1.333h13.334a.667.667 0 110 1.333z"/></symbol><symbol viewBox="0 0 24 24" id="bookmarks" xmlns="http://www.w3.org/2000/svg"><g clip-path="url(#aga)"><path d="M12 20l-1.305-1.151C6.06 14.777 3 12.092 3 8.796 3 6.11 5.178 4 7.95 4c1.566 0 3.069.706 4.05 1.822A5.462 5.462 0 0116.05 4C18.822 4 21 6.11 21 8.796c0 3.296-3.06 5.981-7.695 10.062L12 20z"/></g><defs><clipPath id="aga"><path d="M0 0h24v24H0z"/></clipPath></defs></symbol><symbol viewBox="0 0 31 18" id="car" xmlns="http://www.w3.org/2000/svg"><path d="M12.045 12.569c-1.384 0-2.503 1.167-2.503 2.606 0 1.435 1.119 2.603 2.503 2.603 1.384 0 2.503-1.168 2.503-2.603 0-1.439-1.119-2.606-2.503-2.606zm0 3.908c-.692 0-1.252-.586-1.252-1.302 0-.72.56-1.301 1.252-1.301s1.251.582 1.251 1.301c0 .716-.559 1.302-1.251 1.302zm18.877-5.834v2.78c0 .692-.54 1.254-1.208 1.254h-1.291c-.234-1.665-1.614-2.945-3.28-2.945-1.662 0-3.042 1.28-3.275 2.945H15.32c-.233-1.665-1.613-2.945-3.275-2.945s-3.042 1.28-3.276 2.945H7.153c-.667 0-1.207-.561-1.207-1.255v-2.779h24.976zm-5.776 1.926c-1.384 0-2.506 1.167-2.506 2.606 0 1.435 1.122 2.603 2.506 2.603 1.38 0 2.503-1.168 2.503-2.603 0-1.439-1.122-2.606-2.503-2.606zm0 3.908c-.692 0-1.25-.586-1.25-1.302 0-.72.558-1.301 1.25-1.301.689 0 1.252.582 1.252 1.301 0 .716-.563 1.302-1.252 1.302zm5.3-8.632l-4.744-4.88a1.582 1.582 0 00-1.13-.484h-2.395v-.934c0-.694-.54-1.255-1.207-1.255H7.152c-.664 0-1.207.561-1.207 1.255v.197l-4.899.587 8.68 1.176-8.792.908L9.695 5.71.934 6.5l5.011.983V9.95H30.92v-.916c0-.448-.173-.874-.475-1.188zm-2.068.163h-4.591a.193.193 0 01-.19-.197V4.125c0-.109.085-.197.19-.197h.873a.2.2 0 01.133.055l3.713 3.686c.125.121.04.339-.128.339z"/></symbol><symbol viewBox="0 0 32 32" id="card" xmlns="http://www.w3.org/2000/svg"><g clip-path="url(#aia)"><path d="M32 10.188V8.5A3.5 3.5 0 0028.5 5h-25A3.5 3.5 0 000 8.5v1.688a.313.313 0 00.313.312h31.375a.313.313 0 00.312-.313zM0 12.812V23.5A3.5 3.5 0 003.5 27h25a3.5 3.5 0 003.5-3.5V12.812a.313.313 0 00-.313-.312H.313a.312.312 0 00-.312.313zM8 21a1 1 0 01-1 1H6a1 1 0 01-1-1v-1a1 1 0 011-1h1a1 1 0 011 1v1z"/></g><defs><clipPath id="aia"><path d="M0 0h32v32H0z"/></clipPath></defs></symbol><symbol viewBox="0 0 24 24" id="cart" xmlns="http://www.w3.org/2000/svg"><path d="M7.388 15.112h9.906a2.314 2.314 0 002.256-1.846l1.202-6.014a1.47 1.47 0 00-1.436-1.746H7.112l-.234-1.312A1.478 1.478 0 005.433 3H3.63a.626.626 0 100 1.253h1.804a.217.217 0 01.209.167l1.67 9.439a1.88 1.88 0 00.067 3.75h10.45a.626.626 0 100-1.253H7.388a.627.627 0 010-1.253v.009zm1.671 5.638a1.253 1.253 0 100-2.506 1.253 1.253 0 000 2.506zm6.681 0a1.253 1.253 0 100-2.506 1.253 1.253 0 000 2.506z"/></symbol><symbol viewBox="0 0 41 35" id="cart-regular" xmlns="http://www.w3.org/2000/svg"><path d="M37.313.406l3.562.469-.469 1.969-3.843-.75c-.438 0-.75.094-.938.281a.718.718 0 01-.094.281c-.062.063-.093.125-.093.188l-6.75 23.531c1.187.438 1.906 1.313 2.156 2.625a3.893 3.893 0 01-.469 3c-.563.938-1.375 1.531-2.438 1.781-1.062.25-2.062.125-3-.375-.937-.562-1.53-1.406-1.78-2.531H12.843c-.5 1.5-1.469 2.469-2.906 2.906a3.85 3.85 0 01-2.063 0 3.943 3.943 0 01-1.781-1.031c-.438-.5-.75-1.125-.938-1.875a3.893 3.893 0 01.469-3c.563-.938 1.375-1.531 2.438-1.781a3.893 3.893 0 013 .468c.937.563 1.53 1.375 1.78 2.438h10.032c.25-.875.719-1.563 1.406-2.063.688-.562 1.438-.843 2.25-.843l.75-2.157H7.594c-.75 0-1.438-.218-2.063-.656a3.473 3.473 0 01-1.312-1.687L1.125 10.062c-.25-.937-.094-1.812.469-2.624.812-1.125 1.75-1.532 2.812-1.22h28.125l.938-3.655c.312-.813.718-1.376 1.218-1.688a3.523 3.523 0 012.626-.469zM7.593 31.531c.376.375.845.563 1.407.563.563 0 1-.188 1.313-.563.374-.375.562-.812.562-1.312s-.188-.938-.563-1.313C9.938 28.47 9.5 28.25 9 28.25s-.938.188-1.313.563c-.375.375-.562.843-.562 1.406 0 .5.156.937.469 1.312zm0-9.468h20.345l4.125-13.97H4.405c-.5-.25-.875-.093-1.125.47-.187.187-.281.53-.281 1.03l3.094 11.532c.312.625.812.938 1.5.938zM27 32.093c.563 0 1-.187 1.313-.562.375-.375.562-.812.562-1.312s-.188-.938-.563-1.313c-.375-.437-.812-.656-1.312-.656s-.938.188-1.313.563c-.375.375-.562.843-.562 1.406 0 .312.063.625.188.937.125.25.343.469.656.657.312.187.656.28 1.031.28z"/></symbol><symbol viewBox="0 0 24 24" id="check" xmlns="http://www.w3.org/2000/svg"><path d="M8.998 16.2l-4.2-4.2-1.4 1.4 5.6 5.6 12-12-1.4-1.4-10.6 10.6z"/></symbol><symbol viewBox="0 0 14 8" id="chevron-down" xmlns="http://www.w3.org/2000/svg"><path d="M.731 1l6 6 6-6"/></symbol><symbol viewBox="0 0 11 18" id="chevron-left" xmlns="http://www.w3.org/2000/svg"><path d="M10 17L2 9l8-8"/></symbol><symbol viewBox="0 0 11 18" id="chevron-right" xmlns="http://www.w3.org/2000/svg"><path d="M1 1l8 8-8 8"/></symbol><symbol viewBox="0 0 40 40" id="clock" xmlns="http://www.w3.org/2000/svg"><path d="M5.844 5.938C9.78 2 14.5.03 20 .03S30.188 2 34.063 5.938C38 9.813 39.968 14.5 39.968 20c0 3.625-.907 6.969-2.719 10.031-1.75 3.063-4.156 5.5-7.219 7.313-3.062 1.75-6.406 2.625-10.031 2.625-3.625 0-6.969-.875-10.031-2.625a20.498 20.498 0 01-7.313-7.313C.906 26.97.031 23.625.031 20c0-5.5 1.938-10.188 5.813-14.063zm2.812 25.406C11.781 34.469 15.562 36.03 20 36.03s8.219-1.562 11.344-4.687S36.03 24.437 36.03 20c0-4.438-1.562-8.219-4.687-11.344S24.437 3.97 20 3.97c-4.438 0-8.219 1.562-11.344 4.687S3.97 15.562 3.97 20s1.562 8.219 4.687 11.344zM21.031 9.969v10.5l9 5.343-1.5 2.532-10.5-6.375v-12h3z"/></symbol><symbol viewBox="0 0 24 24" id="clock2" xmlns="http://www.w3.org/2000/svg"><g clip-path="url(#aqa)"><path d="M12 3c-4.95 0-9 4.05-9 9s4.05 9 9 9 9-4.05 9-9-4.05-9-9-9zm3.78 12.78L11.1 12.9V7.5h1.35v4.68l4.05 2.43-.72 1.17z"/></g><defs><clipPath id="aqa"><path d="M0 0h24v24H0z"/></clipPath></defs></symbol><symbol viewBox="0 0 32 32" id="coins" xmlns="http://www.w3.org/2000/svg"><g clip-path="url(#ara)"><path d="M.436 16.041a.667.667 0 00-.396.854l.419 1.152 3.188-3.188-3.21 1.182zm3.017 10.24l1.92 5.28a.66.66 0 00.346.376.669.669 0 00.512.021l2.118-.781-4.896-4.896zm28.506-4.508l-2.197-6.04-5.273 5.272 2.613-.962a.666.666 0 11.461 1.25l-3.32 1.224a.666.666 0 01-.856-.394v-.012l-5.589 5.587 13.765-5.071a.665.665 0 00.396-.854zm-.155-10.911L21.138.195a.667.667 0 00-.943 0l-19.999 20a.667.667 0 000 .942l10.666 10.667a.658.658 0 00.471.196.67.67 0 00.472-.195l20-20a.668.668 0 000-.943zm-23.999 7.61L5.14 21.14a.67.67 0 01-.944 0 .667.667 0 010-.943l2.666-2.667a.667.667 0 01.944.943zm11.513.847c-.472.472-1.113.698-1.827.698-1.178 0-2.555-.617-3.707-1.77-.843-.843-1.435-1.85-1.666-2.838-.256-1.1-.045-2.057.594-2.697.638-.64 1.596-.85 2.697-.593.987.23 1.995.821 2.837 1.665 1.852 1.85 2.324 4.283 1.072 5.535zm8.487-7.513l-2.667 2.666a.67.67 0 01-.944 0 .667.667 0 010-.942l2.667-2.667a.667.667 0 01.944.943z"/></g><defs><clipPath id="ara"><path d="M0 0h32v32H0z"/></clipPath></defs></symbol><symbol viewBox="0 0 22 22" id="cross" xmlns="http://www.w3.org/2000/svg"><path d="M1 1l20 20M1 21L21 1"/></symbol><symbol viewBox="0 0 24 24" id="delete" xmlns="http://www.w3.org/2000/svg"><path d="M18.136 4.636h-3.681v-.409A1.227 1.227 0 0013.227 3h-2.863a1.227 1.227 0 00-1.227 1.227v.41H5.864a1.227 1.227 0 00-1.227 1.227v.409A1.227 1.227 0 005.864 7.5h12.272a1.227 1.227 0 001.228-1.227v-.41a1.227 1.227 0 00-1.228-1.227zm-8.181 0v-.409a.409.409 0 01.409-.409h2.863a.41.41 0 01.41.41v.408H9.954zm8.181 3.682H5.864a2.057 2.057 0 01-.385-.04l.335 10.738a2.036 2.036 0 002.046 1.982h8.281a2.036 2.036 0 002.046-1.982l.335-10.739a2 2 0 01-.386.041zM9.353 18.545H9.34a.41.41 0 01-.409-.398l-.204-7.363a.41.41 0 11.818-.023l.204 7.364a.41.41 0 01-.397.42zm3.056-.409a.409.409 0 01-.818 0v-7.363a.409.409 0 11.818 0v7.363zm2.66.011a.41.41 0 01-.41.398h-.011a.41.41 0 01-.398-.42l.205-7.364a.398.398 0 01.42-.397.408.408 0 01.398.42l-.205 7.363z"/></symbol><symbol viewBox="0 0 25 34" id="doc" xmlns="http://www.w3.org/2000/svg"><path d="M5.64 13.64v.86H16.5v-1.64H5.64v.78zm0-4.14v.86H16.5V8.64H5.64v.86zm0 8.36v.78H16.5V17H5.64v.86zm0 4.14v.86h7.5v-1.72h-7.5V22zM22.36 2h-20v30h20.078l-.079-5.234V2zM24 .36v26.406l.078 6.875H.641V.359H24z"/></symbol><symbol viewBox="0 0 19 12" id="enter" xmlns="http://www.w3.org/2000/svg"><path d="M18 8.035v.5h.5v-.5H18zM.646 7.681a.5.5 0 000 .708l3.182 3.182a.5.5 0 00.708-.707l-2.829-2.83 2.829-2.828a.5.5 0 10-.708-.707L.646 7.68zM17.5.035v8h1v-8h-1zm.5 7.5H1v1h17v-1z"/></symbol><symbol viewBox="0 0 14 14" id="exit" xmlns="http://www.w3.org/2000/svg"><g clip-path="url(#awa)"><path d="M8.286 2.143a.232.232 0 01.018.12c-.006.033.014.06.062.081.048.02.072.037.072.05 0 .011.034.02.102.026l.103.009h2.786c.393 0 .729.14 1.009.42.28.28.42.616.42 1.008v6.286c0 .393-.14.73-.42 1.009-.28.28-.617.42-1.01.42H8.573a.27.27 0 00-.183.058.296.296 0 00-.09.174 1.502 1.502 0 00-.022.446c.006.095.009.155.009.179a.27.27 0 00.085.2.275.275 0 00.2.085h2.858c.708 0 1.314-.251 1.817-.754A2.477 2.477 0 0014 10.143V3.857c0-.708-.252-1.314-.754-1.816a2.476 2.476 0 00-1.817-.755H8.57a.27.27 0 00-.183.058.297.297 0 00-.089.174 1.506 1.506 0 00-.022.446c.006.096.009.155.009.179z"/><path d="M.17 7.402l4.857 4.857a.55.55 0 00.402.17.55.55 0 00.401-.17.55.55 0 00.17-.402V9.286h4a.55.55 0 00.402-.17.55.55 0 00.17-.402V5.286a.549.549 0 00-.17-.402.55.55 0 00-.402-.17H6V2.143a.55.55 0 00-.17-.402.55.55 0 00-.401-.17.55.55 0 00-.402.17L.17 6.598A.55.55 0 000 7a.55.55 0 00.17.402z"/></g><defs><clipPath id="awa"><path d="M0 0h14v14H0z"/></clipPath></defs></symbol><symbol viewBox="0 0 16 16" id="filter" xmlns="http://www.w3.org/2000/svg"><path d="M4.5 6.281c.292.396.438.844.438 1.344 0 .48-.146.917-.438 1.313a2.22 2.22 0 01-1.063.843v4.688a.68.68 0 01-.25.531.68.68 0 01-.53.25.68.68 0 01-.532-.25.723.723 0 01-.219-.531V9.78a2.3 2.3 0 01-.781-.469 2.533 2.533 0 01-.563-.75 2.508 2.508 0 01-.187-.937c0-.333.063-.646.188-.938.145-.291.333-.541.562-.75a2.3 2.3 0 01.781-.468V.75c0-.208.073-.385.219-.531A.723.723 0 012.656 0a.72.72 0 01.531.219.68.68 0 01.25.531v4.719c.438.146.792.416 1.063.812zM3.187 8.156a.68.68 0 00.25-.531.68.68 0 00-.25-.531.68.68 0 00-.53-.25.68.68 0 00-.532.25.723.723 0 00-.219.531c0 .208.073.385.219.531a.723.723 0 00.531.219.723.723 0 00.531-.219zm7.094 4.781a2.16 2.16 0 01-.687 1.626A2.121 2.121 0 018 15.25c-.625 0-1.167-.23-1.625-.688-.438-.437-.656-.979-.656-1.624 0-.313.062-.615.187-.907a2.14 2.14 0 01.532-.75c.229-.208.5-.364.812-.469V.75c0-.208.073-.385.219-.531A.723.723 0 018 0c.208 0 .385.073.531.219A.723.723 0 018.75.75v10.031c.458.167.823.448 1.094.844.291.396.437.833.437 1.313zm-1.75.563a.723.723 0 00.219-.531.762.762 0 00-.219-.563.723.723 0 00-.531-.219.723.723 0 00-.531.22.762.762 0 00-.219.562c0 .208.073.385.219.531a.723.723 0 00.531.219.723.723 0 00.531-.219zm7.094-11.219c0 .5-.146.948-.438 1.344a2.205 2.205 0 01-1.093.813v10.031a.723.723 0 01-.219.531.68.68 0 01-.531.25.777.777 0 01-.563-.25.723.723 0 01-.219-.531V4.563c0-.042.01-.084.032-.125a2.194 2.194 0 01-1.125-.813 2.323 2.323 0 01-.406-1.344c0-.625.218-1.156.656-1.594A2.12 2.12 0 0113.313 0c.645 0 1.187.23 1.624.688.459.437.688.968.688 1.593zm-1.75.563a.832.832 0 00.219-.563.723.723 0 00-.219-.531.723.723 0 00-.531-.219.896.896 0 00-.406.094.904.904 0 00-.282.281.833.833 0 00-.094.375c0 .209.073.396.22.563a.832.832 0 00.562.219.723.723 0 00.531-.22z"/></symbol><symbol viewBox="0 0 30 25" id="filter-bar-icon" xmlns="http://www.w3.org/2000/svg"><path d="M0 3h30M0 12h30M0 22h30M4.5.5h5v5h-5zm17.5 9h5v5h-5zm-11 10h5v5h-5z"/></symbol><symbol viewBox="0 0 20 20" id="global" xmlns="http://www.w3.org/2000/svg"><path d="M5.625 10c0-.766.047-1.531.141-2.292H1.35A9.05 9.05 0 001.042 10a9.05 9.05 0 00.308 2.292h4.417A18.392 18.392 0 015.625 10zM10 17.708c1.05 0 2.183-1.608 2.75-4.166h-5.5c.566 2.558 1.7 4.166 2.75 4.166zm2.975-10h-5.95c-.2 1.522-.2 3.063 0 4.584h5.95c.098-.76.149-1.526.15-2.292a18.012 18.012 0 00-.15-2.292zM10 2.292c-1.05 0-2.184 1.608-2.75 4.166h5.5C12.183 3.9 11.05 2.292 10 2.292z"/><path d="M14.033 13.542c-.658 3.216-2.2 5.416-4.033 5.416a8.967 8.967 0 008.225-5.416h-4.192zm-8.066 0H1.8a8.967 8.967 0 008.2 5.416c-1.833 0-3.333-2.2-4.033-5.416zm0-7.084c.7-3.216 2.2-5.416 4.033-5.416a8.967 8.967 0 00-8.225 5.416h4.192zm12.683 5.834A9.05 9.05 0 0018.958 10a9.05 9.05 0 00-.308-2.292h-4.417a18.496 18.496 0 010 4.584h4.417zm-4.617-5.834H18.2A8.966 8.966 0 0010 1.042c1.833 0 3.375 2.2 4.033 5.416z"/></symbol><symbol viewBox="0 0 24 24" id="heart" xmlns="http://www.w3.org/2000/svg"><g clip-path="url(#baa)"><path d="M12 20l-1.305-1.151C6.06 14.777 3 12.092 3 8.796 3 6.11 5.178 4 7.95 4c1.566 0 3.069.706 4.05 1.822A5.462 5.462 0 0116.05 4C18.822 4 21 6.11 21 8.796c0 3.296-3.06 5.981-7.695 10.062L12 20z"/></g><defs><clipPath id="baa"><path d="M0 0h24v24H0z"/></clipPath></defs></symbol><symbol viewBox="0 0 22 22" id="house" xmlns="http://www.w3.org/2000/svg"><path d="M22 10.035c.398-.432.446-.615 0-1l-10-9c-.447-.385-1.563-.395-2 0l-10 9c-.437.395-.411 1.579 0 2h1c.41.421.593.36 1 0l1-1v10c0 .585.407 1 1 1h4c.592 0 1-.415 1-1v-7h5v7c-.009.584.407 1 1 1h4c.592 0 1-.415 1-1v-9s-.252-.218 0 0c.25.217.6.433 1 0l1-1z"/></symbol><symbol viewBox="0 0 24 24" id="icon-check-not-ok" xmlns="http://www.w3.org/2000/svg"><g clip-path="url(#bca)"><path d="M4.928 4.929c-3.903 3.903-3.903 10.239 0 14.142 3.904 3.903 10.24 3.903 14.143 0 3.903-3.903 3.903-10.239 0-14.142-3.904-3.903-10.24-3.903-14.143 0zm11.314 4.243L13.414 12l2.828 2.828-1.414 1.415L12 13.414l-2.83 2.829-1.414-1.415L10.585 12 7.757 9.172 9.17 7.757 12 10.586l2.828-2.829 1.414 1.415z"/></g><defs><clipPath id="bca"><path d="M0 0h24v24H0z"/></clipPath></defs></symbol><symbol viewBox="0 0 24 24" id="icon-check-ok" xmlns="http://www.w3.org/2000/svg"><path d="M12 2C6.48 2 2 6.48 2 12s4.48 10 10 10 10-4.48 10-10S17.52 2 12 2zm-2 15l-5-5 1.41-1.41L10 14.17l7.59-7.59L19 8l-9 9z"/></symbol><symbol viewBox="0 0 24 24" id="icon-favorite-default" xmlns="http://www.w3.org/2000/svg"><g clip-path="url(#bea)"><path d="M12 20l-1.305-1.151C6.06 14.777 3 12.092 3 8.796 3 6.11 5.178 4 7.95 4c1.566 0 3.069.706 4.05 1.822A5.462 5.462 0 0116.05 4C18.822 4 21 6.11 21 8.796c0 3.296-3.06 5.981-7.695 10.062L12 20z"/></g><defs><clipPath id="bea"><path d="M0 0h24v24H0z"/></clipPath></defs></symbol><symbol viewBox="0 0 16 16" id="icon-phone" xmlns="http://www.w3.org/2000/svg"><path d="M13.685 10.807l-1.678-1.675c-.6-.598-1.618-.359-1.858.419-.18.538-.779.837-1.318.717-1.199-.299-2.817-1.854-3.117-3.11-.18-.538.18-1.136.72-1.315.778-.24 1.018-1.256.419-1.854L5.175 2.314c-.48-.419-1.199-.419-1.619 0L2.418 3.45c-1.14 1.197.12 4.366 2.936 7.177 2.817 2.811 5.994 4.127 7.193 2.931l1.138-1.136c.42-.479.42-1.197 0-1.615z"/></symbol><symbol viewBox="0 0 24 24" id="icon_bag" xmlns="http://www.w3.org/2000/svg"><path d="M7.388 15.112h9.906a2.314 2.314 0 002.256-1.846l1.202-6.014a1.47 1.47 0 00-1.436-1.746H7.112l-.234-1.312A1.478 1.478 0 005.433 3H3.63a.626.626 0 100 1.253h1.804a.217.217 0 01.209.167l1.67 9.439a1.88 1.88 0 00.067 3.75h10.45a.626.626 0 100-1.253H7.388a.627.627 0 010-1.253v.009zm1.671 5.638a1.253 1.253 0 100-2.506 1.253 1.253 0 000 2.506zm6.681 0a1.253 1.253 0 100-2.506 1.253 1.253 0 000 2.506z"/></symbol><symbol viewBox="0 0 24 24" id="lines" xmlns="http://www.w3.org/2000/svg"><path fill-rule="evenodd" clip-rule="evenodd" d="M2 2h20v4H2V2zm0 8h20v4H2v-4zm20 8H2v4h20v-4z"/></symbol><symbol viewBox="0 0 24 24" id="location" xmlns="http://www.w3.org/2000/svg"><path d="M19 20c0 1.89-3.63 2.75-7 2.75S5 21.89 5 20c0-1.09 1.14-1.74 2.36-2.12.33.45.68.88 1 1.27-1.26.31-1.78.71-1.83.87.1.26 1.46 1 4 1.17.44 0 .92.06 1.43.06.51 0 1 0 1.43-.06 2.56-.2 3.92-.91 4-1.21-.05-.13-.57-.52-1.83-.83.34-.39.69-.82 1-1.27 1.3.38 2.44 1.03 2.44 2.12zm-7-8.75a2.25 2.25 0 100-4.5 2.25 2.25 0 000 4.5z"/><path d="M12 1.25A7.76 7.76 0 004.25 9c0 3.84 6 11.75 7.75 11.75S19.75 12.84 19.75 9A7.76 7.76 0 0012 1.25zm0 11.5a3.75 3.75 0 110-7.5 3.75 3.75 0 010 7.5z"/></symbol><symbol viewBox="0 0 24 24" id="logout" xmlns="http://www.w3.org/2000/svg"><path d="M10.201 18.8a.326.326 0 01-.025-.17c.009-.045-.02-.082-.087-.111-.067-.03-.1-.053-.1-.069 0-.017-.048-.03-.144-.037L9.7 18.4H5.8c-.55 0-1.02-.196-1.412-.588A1.926 1.926 0 013.8 16.4V7.6c0-.55.196-1.02.588-1.413A1.926 1.926 0 015.8 5.6h4a.378.378 0 00.256-.081.416.416 0 00.125-.244 2.109 2.109 0 00.032-.625 5.75 5.75 0 01-.013-.25.385.385 0 00-.119-.281.385.385 0 00-.28-.119h-4c-.992 0-1.84.352-2.545 1.056A3.467 3.467 0 002.201 7.6v8.8c0 .992.352 1.84 1.056 2.544A3.467 3.467 0 005.801 20h4a.38.38 0 00.256-.081.415.415 0 00.125-.244 2.1 2.1 0 00.032-.625 5.692 5.692 0 01-.013-.25z"/><path d="M21.563 11.437l-6.8-6.8A.77.77 0 0014.2 4.4a.77.77 0 00-.562.237.769.769 0 00-.238.563v3.6H7.8a.77.77 0 00-.563.237A.769.769 0 007 9.6v4.8c0 .217.08.404.237.563a.77.77 0 00.563.237h5.6v3.6c0 .217.08.404.238.563a.77.77 0 00.562.237.77.77 0 00.563-.237l6.8-6.8A.769.769 0 0021.8 12a.77.77 0 00-.237-.563z"/></symbol><symbol viewBox="0 0 24 24" id="minus" xmlns="http://www.w3.org/2000/svg"><path d="M5.689 11.232H3.768v1.921h16.464v-1.921H5.689z"/></symbol><symbol viewBox="0 0 23 24" id="plane" xmlns="http://www.w3.org/2000/svg"><path d="M23 12.035c0-.968-1.08-2-2-2h-6l-6-10H7l3 10H3l-1-3H0l1 5-1 4h2l1-3h7l-3 10h2l6-10h6c.92 0 2-.031 2-1z"/></symbol><symbol viewBox="0 0 24 24" id="plus" xmlns="http://www.w3.org/2000/svg"><path d="M12 1v22M1 12h22"/></symbol><symbol viewBox="0 0 40 40" id="profile" xmlns="http://www.w3.org/2000/svg"><path d="M15.969 23c-1-1.063-1.5-2.313-1.5-3.75 0-1.5.5-2.75 1.5-3.75 1.062-1.063 2.312-1.594 3.75-1.594 1.5 0 2.75.531 3.75 1.594 1.062 1 1.593 2.25 1.593 3.75 0 1.438-.53 2.688-1.593 3.75-1 1-2.25 1.5-3.75 1.5-1.438 0-2.688-.5-3.75-1.5zm-1.313-8.906C13.22 15.469 12.5 17.188 12.5 19.25c0 2 .719 3.719 2.156 5.156 1.438 1.375 3.156 2.063 5.156 2.063 2 0 3.72-.688 5.157-2.063 1.437-1.437 2.156-3.156 2.156-5.156 0-2.063-.719-3.781-2.156-5.156-1.438-1.438-3.157-2.156-5.157-2.156s-3.718.718-5.156 2.156zm15 21.937h1.032c0-3.375-1.063-6.031-3.188-7.968-2.063-2-4.656-3-7.781-3-3.063 0-5.625 1-7.688 3C9.97 30 8.937 32.656 8.937 36.03h1.969c0-2.812.813-5 2.438-6.562 1.687-1.563 3.844-2.344 6.469-2.344 1.25 0 2.406.188 3.468.563 1.125.375 2.063.937 2.813 1.687.812.75 1.437 1.688 1.875 2.813.5 1.124.75 2.406.75 3.843h.937zm3-28.687C29.156 3.78 24.938 2 20 2c-4.938 0-9.188 1.781-12.75 5.344C3.75 10.844 2 15.062 2 20c0 4.938 1.75 9.188 5.25 12.75C10.813 36.25 15.063 38 20 38c4.938 0 9.156-1.75 12.656-5.25C36.22 29.187 38 24.937 38 20c0-4.938-1.781-9.156-5.344-12.656zM5.844 5.937C9.78 2 14.5.032 20 .032S30.188 2 34.063 5.938C38 9.813 39.968 14.5 39.968 20S38 30.219 34.062 34.156C30.189 38.031 25.5 39.97 20 39.97S9.781 38.03 5.844 34.156C1.969 30.22.03 25.5.03 20S1.97 9.812 5.844 5.937z"/></symbol><symbol viewBox="0 0 14 14" id="reset" xmlns="http://www.w3.org/2000/svg"><path d="M1 7c0 1.646.583 3.063 1.75 4.25C3.938 12.417 5.354 13 7 13s3.052-.583 4.219-1.75C12.406 10.062 13 8.646 13 7s-.594-3.052-1.781-4.219C10.052 1.594 8.646 1 7 1c-1.833 0-3.354.781-4.563 2.344H5V4H1.344V.344H2v2.469C3.292 1.167 4.958.342 7 .342c1.833 0 3.396.657 4.688 1.97C13 3.603 13.655 5.167 13.655 7c0 1.833-.656 3.406-1.969 4.719-1.29 1.291-2.852 1.937-4.686 1.937-1.833 0-3.406-.646-4.719-1.937C.99 10.406.344 8.833.344 7H1z"/></symbol><symbol viewBox="0 0 24 24" id="share" xmlns="http://www.w3.org/2000/svg"><path d="M16.25 9.333a2.375 2.375 0 100-4.75 2.375 2.375 0 000 4.75zm-9.5 5.542a2.375 2.375 0 100-4.75 2.375 2.375 0 000 4.75zm9.5 5.542a2.375 2.375 0 100-4.75 2.375 2.375 0 000 4.75zM8.8 13.695l5.407 3.151M14.2 8.153l-5.4 3.151"/></symbol><symbol viewBox="0 0 24 24" id="share2" xmlns="http://www.w3.org/2000/svg"><path d="M16.25 9.333a2.375 2.375 0 100-4.75 2.375 2.375 0 000 4.75zm-9.5 5.542a2.375 2.375 0 100-4.75 2.375 2.375 0 000 4.75zm9.5 5.542a2.375 2.375 0 100-4.75 2.375 2.375 0 000 4.75zM8.8 13.695l5.408 3.151M14.2 8.154l-5.4 3.15"/></symbol><symbol viewBox="0 0 19 16" id="site-map" xmlns="http://www.w3.org/2000/svg"><rect x="6.5" y=".5" width="4" height="4" rx="1.5"/><rect x=".5" y="11.5" width="4" height="4" rx="1.5"/><rect x="7.5" y="11.5" width="4" height="4" rx="1.5"/><rect x="14.5" y="11.5" width="4" height="4" rx="1.5"/><path d="M9 4v8m-6 0V8h14v4"/></symbol><symbol viewBox="0 0 24 24" id="square" xmlns="http://www.w3.org/2000/svg"><path fill-rule="evenodd" clip-rule="evenodd" d="M11 2H2v9h9V2zm11 0h-9v9h9V2zm-9 11h9v9h-9v-9zm-2 0H2v9h9v-9z"/></symbol><symbol viewBox="0 0 16 15" id="star" xmlns="http://www.w3.org/2000/svg"><path d="M8.321.574l1.964 4.515 5.028.42c.35.03.491.452.226.675l-3.814 3.21 1.143 4.775c.08.332-.29.593-.59.417l-4.322-2.532-4.32 2.532c-.301.175-.67-.086-.591-.417l1.143-4.775L.373 6.183c-.265-.223-.124-.645.226-.675l5.028-.42L7.591.575a.4.4 0 01.73 0z"/></symbol><symbol viewBox="0 0 11 18" id="swiper-left" xmlns="http://www.w3.org/2000/svg"><path d="M10 17L2 9l8-8"/></symbol><symbol viewBox="0 0 11 18" id="swiper-right" xmlns="http://www.w3.org/2000/svg"><path d="M1 17l8-8-8-8"/></symbol><symbol viewBox="0 0 24 24" id="tel" xmlns="http://www.w3.org/2000/svg"><path d="M20.528 16.21l-2.517-2.512c-.9-.897-2.428-.538-2.787.628-.27.808-1.169 1.256-1.978 1.077-1.798-.449-4.225-2.781-4.675-4.665-.27-.808.27-1.705 1.079-1.974 1.169-.359 1.528-1.884.63-2.781L7.761 3.47c-.72-.628-1.798-.628-2.427 0L3.627 5.176c-1.709 1.794.18 6.549 4.405 10.765 4.225 4.216 8.99 6.19 10.788 4.396l1.708-1.705c.63-.717.63-1.794 0-2.422z"/></symbol><symbol viewBox="0 0 24 24" id="user" xmlns="http://www.w3.org/2000/svg"><path d="M12 11.372a2.093 2.093 0 100-4.186 2.093 2.093 0 000 4.186zm.042 1.256a3.156 3.156 0 00-3.224 3.14 1.046 1.046 0 001.047 1.046h4.27a1.046 1.046 0 001.046-1.047 3.14 3.14 0 00-3.14-3.14z"/><path d="M12 3a9 9 0 109 9 9.008 9.008 0 00-9-9zm2.135 15.07h-4.27a2.302 2.302 0 01-2.302-2.303 4.387 4.387 0 012.37-3.876 3.35 3.35 0 01-.87-4.24 3.349 3.349 0 114.996 4.248 4.362 4.362 0 012.378 3.868 2.302 2.302 0 01-2.302 2.303z"/></symbol><symbol viewBox="0 0 548.358 548.358" id="vk" xmlns="http://www.w3.org/2000/svg"><path d="M545.451 400.298c-.664-1.431-1.283-2.618-1.858-3.569-9.514-17.135-27.695-38.167-54.532-63.102l-.567-.571-.284-.28-.287-.287h-.288c-12.18-11.611-19.893-19.418-23.123-23.415-5.91-7.614-7.234-15.321-4.004-23.13 2.282-5.9 10.854-18.36 25.696-37.397 7.807-10.089 13.99-18.175 18.556-24.267 32.931-43.78 47.208-71.756 42.828-83.939l-1.701-2.847c-1.143-1.714-4.093-3.282-8.846-4.712-4.764-1.427-10.853-1.663-18.278-.712l-82.224.568c-1.332-.472-3.234-.428-5.712.144l-3.713.859-1.431.715-1.136.859c-.952.568-1.999 1.567-3.142 2.995-1.137 1.423-2.088 3.093-2.848 4.996-8.952 23.031-19.13 44.444-30.553 64.238-7.043 11.803-13.511 22.032-19.418 30.693-5.899 8.658-10.848 15.037-14.842 19.126-4 4.093-7.61 7.372-10.852 9.849-3.237 2.478-5.708 3.525-7.419 3.142-1.715-.383-3.33-.763-4.859-1.143-2.663-1.714-4.805-4.045-6.42-6.995-1.622-2.95-2.714-6.663-3.285-11.136-.568-4.476-.904-8.326-1-11.563-.089-3.233-.048-7.806.145-13.706.198-5.903.287-9.897.287-11.991 0-7.234.141-15.085.424-23.555.288-8.47.521-15.181.716-20.125.194-4.949.284-10.185.284-15.705s-.336-9.849-1-12.991a44.442 44.442 0 00-2.99-9.137c-1.335-2.95-3.289-5.232-5.853-6.852-2.569-1.618-5.763-2.902-9.564-3.856-10.089-2.283-22.936-3.518-38.547-3.71-35.401-.38-58.148 1.906-68.236 6.855-3.997 2.091-7.614 4.948-10.848 8.562-3.427 4.189-3.905 6.475-1.431 6.851 11.422 1.711 19.508 5.804 24.267 12.275l1.715 3.429c1.334 2.474 2.666 6.854 3.999 13.134 1.331 6.28 2.19 13.227 2.568 20.837.95 13.897.95 25.793 0 35.689-.953 9.9-1.853 17.607-2.712 23.127-.859 5.52-2.143 9.993-3.855 13.418-1.715 3.426-2.856 5.52-3.428 6.28-.571.76-1.047 1.239-1.425 1.427a21.387 21.387 0 01-7.71 1.431c-2.667 0-5.901-1.334-9.707-4-3.805-2.666-7.754-6.328-11.847-10.992-4.093-4.665-8.709-11.184-13.85-19.558-5.137-8.374-10.467-18.271-15.987-29.691l-4.567-8.282c-2.855-5.328-6.755-13.086-11.704-23.267-4.952-10.185-9.329-20.037-13.134-29.554-1.521-3.997-3.806-7.04-6.851-9.134l-1.429-.859c-.95-.76-2.475-1.567-4.567-2.427a30.301 30.301 0 00-6.567-1.854l-78.229.568c-7.994 0-13.418 1.811-16.274 5.428l-1.143 1.711c-.571.953-.859 2.475-.859 4.57 0 2.094.571 4.664 1.714 7.707 11.42 26.84 23.839 52.725 37.257 77.659 13.418 24.934 25.078 45.019 34.973 60.237 9.897 15.229 19.985 29.602 30.264 43.112 10.279 13.515 17.083 22.176 20.412 25.981 3.333 3.812 5.951 6.662 7.854 8.565l7.139 6.851c4.568 4.569 11.276 10.041 20.127 16.416 8.853 6.379 18.654 12.659 29.408 18.85 10.756 6.181 23.269 11.225 37.546 15.126 14.275 3.905 28.169 5.472 41.684 4.716h32.834c6.659-.575 11.704-2.669 15.133-6.283l1.136-1.431c.764-1.136 1.479-2.901 2.139-5.276.668-2.379 1-5 1-7.851-.195-8.183.428-15.558 1.852-22.124 1.423-6.564 3.045-11.513 4.859-14.846 1.813-3.33 3.859-6.14 6.136-8.418 2.282-2.283 3.908-3.666 4.862-4.142.948-.479 1.705-.804 2.276-.999 4.568-1.522 9.944-.048 16.136 4.429 6.187 4.473 11.99 9.996 17.418 16.56 5.425 6.57 11.943 13.941 19.555 22.124 7.617 8.186 14.277 14.271 19.985 18.274l5.708 3.426c3.812 2.286 8.761 4.38 14.853 6.283 6.081 1.902 11.409 2.378 15.984 1.427l73.087-1.14c7.229 0 12.854-1.197 16.844-3.572 3.998-2.379 6.373-5 7.139-7.851.764-2.854.805-6.092.145-9.712-.677-3.611-1.344-6.136-2.008-7.563z"/></symbol><symbol viewBox="0 0 512 512" id="youtube" xmlns="http://www.w3.org/2000/svg"><path d="M260.4 449c-57.1-1.8-111.4-3.2-165.7-5.3-11.7-.5-23.6-2.3-35-5-21.4-5-36.2-17.9-43.8-39-6.1-17-8.3-34.5-9.9-52.3-3.5-41.8-3.5-83.6-1.8-125.4 1-23.6 1.6-47.4 7.9-70.3 3.8-13.7 8.4-27.1 19.5-37 11.7-10.5 25.4-16.8 41-17.5 42.8-2.1 85.5-4.7 128.3-5.1 57.6-.6 115.3.2 172.9 1.3 24.9.5 50 1.8 74.7 5 22.6 3 39.5 15.6 48.5 37.6 6.9 16.9 9.5 34.6 11 52.6 3.9 45.1 4 90.2 1.8 135.3-1.1 22.9-2.2 45.9-8.7 68.2-7.4 25.6-23.1 42.5-49.3 48.3-10.2 2.2-20.8 3-31.2 3.4-54.4 1.9-108.7 3.6-160.2 5.2zm-55.3-113.7c45.6-23.6 90.7-47 136.7-70.9-45.9-24-91-47.5-136.7-71.4v142.3z"/></symbol><symbol viewBox="0 0 24 24" id="zoom" xmlns="http://www.w3.org/2000/svg"><path d="M16.677 14.91a8.071 8.071 0 001.573-4.785C18.25 5.645 14.605 2 10.125 2S2 5.645 2 10.125s3.645 8.125 8.125 8.125c1.79 0 3.44-.589 4.785-1.573L20.233 22 22 20.232l-5.323-5.322zm-6.552.84A5.631 5.631 0 014.5 10.125 5.631 5.631 0 0110.125 4.5a5.631 5.631 0 015.625 5.625 5.631 5.631 0 01-5.625 5.625z"/></symbol></svg>