<svg width="32" height="32" viewBox="0 0 32 32" fill="none" xmlns="http://www.w3.org/2000/svg">
<path d="M23.3333 4V6H27.3333V4C27.3333 3.46957 27.1226 2.96086 26.7475 2.58579C26.3725 2.21071 25.8638 2 25.3333 2C24.8029 2 24.2942 2.21071 23.9191 2.58579C23.544 2.96086 23.3333 3.46957 23.3333 4ZM20 16H28V20H20V16Z" fill="#282828"/>
<path d="M29.9993 12.6666H17.9993C17.6457 12.6666 17.3066 12.8071 17.0565 13.0572C16.8065 13.3072 16.666 13.6463 16.666 14V30C16.666 30.3536 16.8065 30.6927 17.0565 30.9428C17.3066 31.1928 17.6457 31.3333 17.9993 31.3333H29.9993C30.353 31.3333 30.6921 31.1928 30.9422 30.9428C31.1922 30.6927 31.3327 30.3536 31.3327 30V14C31.3327 13.6463 31.1922 13.3072 30.9422 13.0572C30.6921 12.8071 30.353 12.6666 29.9993 12.6666ZM20.666 29.3333H19.3327C19.1559 29.3333 18.9863 29.2631 18.8613 29.138C18.7363 29.013 18.666 28.8434 18.666 28.6666C18.666 28.4898 18.7363 28.3202 18.8613 28.1952C18.9863 28.0702 19.1559 28 19.3327 28H20.666C20.8428 28 21.0124 28.0702 21.1374 28.1952C21.2624 28.3202 21.3327 28.4898 21.3327 28.6666C21.3327 28.8434 21.2624 29.013 21.1374 29.138C21.0124 29.2631 20.8428 29.3333 20.666 29.3333ZM20.666 26.6666H19.3327C19.1559 26.6666 18.9863 26.5964 18.8613 26.4714C18.7363 26.3463 18.666 26.1768 18.666 26C18.666 25.8231 18.7363 25.6536 18.8613 25.5286C18.9863 25.4035 19.1559 25.3333 19.3327 25.3333H20.666C20.8428 25.3333 21.0124 25.4035 21.1374 25.5286C21.2624 25.6536 21.3327 25.8231 21.3327 26C21.3327 26.1768 21.2624 26.3463 21.1374 26.4714C21.0124 26.5964 20.8428 26.6666 20.666 26.6666ZM20.666 24H19.3327C19.1559 24 18.9863 23.9297 18.8613 23.8047C18.7363 23.6797 18.666 23.5101 18.666 23.3333C18.666 23.1565 18.7363 22.9869 18.8613 22.8619C18.9863 22.7369 19.1559 22.6666 19.3327 22.6666H20.666C20.8428 22.6666 21.0124 22.7369 21.1374 22.8619C21.2624 22.9869 21.3327 23.1565 21.3327 23.3333C21.3327 23.5101 21.2624 23.6797 21.1374 23.8047C21.0124 23.9297 20.8428 24 20.666 24ZM24.666 29.3333H23.3327C23.1559 29.3333 22.9863 29.2631 22.8613 29.138C22.7363 29.013 22.666 28.8434 22.666 28.6666C22.666 28.4898 22.7363 28.3202 22.8613 28.1952C22.9863 28.0702 23.1559 28 23.3327 28H24.666C24.8428 28 25.0124 28.0702 25.1374 28.1952C25.2624 28.3202 25.3327 28.4898 25.3327 28.6666C25.3327 28.8434 25.2624 29.013 25.1374 29.138C25.0124 29.2631 24.8428 29.3333 24.666 29.3333ZM24.666 26.6666H23.3327C23.1559 26.6666 22.9863 26.5964 22.8613 26.4714C22.7363 26.3463 22.666 26.1768 22.666 26C22.666 25.8231 22.7363 25.6536 22.8613 25.5286C22.9863 25.4035 23.1559 25.3333 23.3327 25.3333H24.666C24.8428 25.3333 25.0124 25.4035 25.1374 25.5286C25.2624 25.6536 25.3327 25.8231 25.3327 26C25.3327 26.1768 25.2624 26.3463 25.1374 26.4714C25.0124 26.5964 24.8428 26.6666 24.666 26.6666ZM24.666 24H23.3327C23.1559 24 22.9863 23.9297 22.8613 23.8047C22.7363 23.6797 22.666 23.5101 22.666 23.3333C22.666 23.1565 22.7363 22.9869 22.8613 22.8619C22.9863 22.7369 23.1559 22.6666 23.3327 22.6666H24.666C24.8428 22.6666 25.0124 22.7369 25.1374 22.8619C25.2624 22.9869 25.3327 23.1565 25.3327 23.3333C25.3327 23.5101 25.2624 23.6797 25.1374 23.8047C25.0124 23.9297 24.8428 24 24.666 24ZM28.666 29.3333H27.3327C27.1559 29.3333 26.9863 29.2631 26.8613 29.138C26.7363 29.013 26.666 28.8434 26.666 28.6666C26.666 28.4898 26.7363 28.3202 26.8613 28.1952C26.9863 28.0702 27.1559 28 27.3327 28H28.666C28.8428 28 29.0124 28.0702 29.1374 28.1952C29.2624 28.3202 29.3327 28.4898 29.3327 28.6666C29.3327 28.8434 29.2624 29.013 29.1374 29.138C29.0124 29.2631 28.8428 29.3333 28.666 29.3333ZM28.666 26.6666H27.3327C27.1559 26.6666 26.9863 26.5964 26.8613 26.4714C26.7363 26.3463 26.666 26.1768 26.666 26C26.666 25.8231 26.7363 25.6536 26.8613 25.5286C26.9863 25.4035 27.1559 25.3333 27.3327 25.3333H28.666C28.8428 25.3333 29.0124 25.4035 29.1374 25.5286C29.2624 25.6536 29.3327 25.8231 29.3327 26C29.3327 26.1768 29.2624 26.3463 29.1374 26.4714C29.0124 26.5964 28.8428 26.6666 28.666 26.6666ZM28.666 24H27.3327C27.1559 24 26.9863 23.9297 26.8613 23.8047C26.7363 23.6797 26.666 23.5101 26.666 23.3333C26.666 23.1565 26.7363 22.9869 26.8613 22.8619C26.9863 22.7369 27.1559 22.6666 27.3327 22.6666H28.666C28.8428 22.6666 29.0124 22.7369 29.1374 22.8619C29.2624 22.9869 29.3327 23.1565 29.3327 23.3333C29.3327 23.5101 29.2624 23.6797 29.1374 23.8047C29.0124 23.9297 28.8428 24 28.666 24ZM29.3327 20.6666C29.3327 20.8434 29.2624 21.013 29.1374 21.138C29.0124 21.2631 28.8428 21.3333 28.666 21.3333H19.3327C19.1559 21.3333 18.9863 21.2631 18.8613 21.138C18.7363 21.013 18.666 20.8434 18.666 20.6666V15.3333C18.666 15.1565 18.7363 14.9869 18.8613 14.8619C18.9863 14.7369 19.1559 14.6666 19.3327 14.6666H28.666C28.8428 14.6666 29.0124 14.7369 29.1374 14.8619C29.2624 14.9869 29.3327 15.1565 29.3327 15.3333V20.6666Z" fill="#282828"/>
<path d="M21.9993 11.3333V3.33329C21.9993 2.62605 22.2803 1.94777 22.7804 1.44767C23.2805 0.947578 23.9588 0.666626 24.666 0.666626H3.33268C2.62544 0.666626 1.94716 0.947578 1.44706 1.44767C0.946967 1.94777 0.666016 2.62605 0.666016 3.33329V28.6666H15.3327V14C15.3327 13.2927 15.6136 12.6144 16.1137 12.1143C16.6138 11.6142 17.2921 11.3333 17.9993 11.3333H21.9993ZM3.99935 5.33329H17.3327C17.5095 5.33329 17.6791 5.40353 17.8041 5.52855C17.9291 5.65358 17.9993 5.82315 17.9993 5.99996C17.9993 6.17677 17.9291 6.34634 17.8041 6.47136C17.6791 6.59639 17.5095 6.66663 17.3327 6.66663H3.99935C3.82254 6.66663 3.65297 6.59639 3.52794 6.47136C3.40292 6.34634 3.33268 6.17677 3.33268 5.99996C3.33268 5.82315 3.40292 5.65358 3.52794 5.52855C3.65297 5.40353 3.82254 5.33329 3.99935 5.33329ZM13.3327 23.3333H3.99935C3.82254 23.3333 3.65297 23.2631 3.52794 23.138C3.40292 23.013 3.33268 22.8434 3.33268 22.6666C3.33268 22.4898 3.40292 22.3202 3.52794 22.1952C3.65297 22.0702 3.82254 22 3.99935 22H13.3327C13.5095 22 13.6791 22.0702 13.8041 22.1952C13.9291 22.3202 13.9993 22.4898 13.9993 22.6666C13.9993 22.8434 13.9291 23.013 13.8041 23.138C13.6791 23.2631 13.5095 23.3333 13.3327 23.3333ZM13.3327 20H3.99935C3.82254 20 3.65297 19.9297 3.52794 19.8047C3.40292 19.6797 3.33268 19.5101 3.33268 19.3333C3.33268 19.1565 3.40292 18.9869 3.52794 18.8619C3.65297 18.7369 3.82254 18.6666 3.99935 18.6666H13.3327C13.5095 18.6666 13.6791 18.7369 13.8041 18.8619C13.9291 18.9869 13.9993 19.1565 13.9993 19.3333C13.9993 19.5101 13.9291 19.6797 13.8041 19.8047C13.6791 19.9297 13.5095 20 13.3327 20ZM13.3327 16.6666H3.99935C3.82254 16.6666 3.65297 16.5964 3.52794 16.4714C3.40292 16.3463 3.33268 16.1768 3.33268 16C3.33268 15.8231 3.40292 15.6536 3.52794 15.5286C3.65297 15.4035 3.82254 15.3333 3.99935 15.3333H13.3327C13.5095 15.3333 13.6791 15.4035 13.8041 15.5286C13.9291 15.6536 13.9993 15.8231 13.9993 16C13.9993 16.1768 13.9291 16.3463 13.8041 16.4714C13.6791 16.5964 13.5095 16.6666 13.3327 16.6666ZM13.3327 13.3333H3.99935C3.82254 13.3333 3.65297 13.2631 3.52794 13.138C3.40292 13.013 3.33268 12.8434 3.33268 12.6666C3.33268 12.4898 3.40292 12.3202 3.52794 12.1952C3.65297 12.0702 3.82254 12 3.99935 12H13.3327C13.5095 12 13.6791 12.0702 13.8041 12.1952C13.9291 12.3202 13.9993 12.4898 13.9993 12.6666C13.9993 12.8434 13.9291 13.013 13.8041 13.138C13.6791 13.2631 13.5095 13.3333 13.3327 13.3333ZM17.3327 9.99996H3.99935C3.82254 9.99996 3.65297 9.92972 3.52794 9.8047C3.40292 9.67967 3.33268 9.5101 3.33268 9.33329C3.33268 9.15648 3.40292 8.98691 3.52794 8.86189C3.65297 8.73686 3.82254 8.66663 3.99935 8.66663H17.3327C17.5095 8.66663 17.6791 8.73686 17.8041 8.86189C17.9291 8.98691 17.9993 9.15648 17.9993 9.33329C17.9993 9.5101 17.9291 9.67967 17.8041 9.8047C17.6791 9.92972 17.5095 9.99996 17.3327 9.99996Z" fill="#282828"/>
</svg>
