<svg width="32" height="32" viewBox="0 0 32 32" fill="none" xmlns="http://www.w3.org/2000/svg">
<g clip-path="url(#clip0_1945_11840)">
<path d="M32 10.1875V8.5C32 6.567 30.433 5 28.5 5H3.5C1.567 5 0 6.567 0 8.5V10.1875C0 10.2704 0.032924 10.3499 0.0915291 10.4085C0.150134 10.4671 0.22962 10.5 0.3125 10.5H31.6875C31.7704 10.5 31.8499 10.4671 31.9085 10.4085C31.9671 10.3499 32 10.2704 32 10.1875ZM0 12.8125V23.5C0 25.433 1.567 27 3.5 27H28.5C30.433 27 32 25.433 32 23.5V12.8125C32 12.7296 31.9671 12.6501 31.9085 12.5915C31.8499 12.5329 31.7704 12.5 31.6875 12.5H0.3125C0.22962 12.5 0.150134 12.5329 0.0915291 12.5915C0.032924 12.6501 0 12.7296 0 12.8125ZM8 21C8 21.5522 7.55225 22 7 22H6C5.44775 22 5 21.5522 5 21V20C5 19.4478 5.44775 19 6 19H7C7.55225 19 8 19.4478 8 20V21Z" fill="white"/>
</g>
<defs>
<clipPath id="clip0_1945_11840">
<rect width="32" height="32" fill="white"/>
</clipPath>
</defs>
</svg>
