<svg width="24" height="24" viewBox="0 0 24 24" fill="none" xmlns="http://www.w3.org/2000/svg">
<path d="M7.38774 15.1118H17.2943C17.8249 15.1093 18.3386 14.9246 18.7492 14.5885C19.1597 14.2524 19.4424 13.7854 19.5496 13.2658L20.7524 7.25165C20.7929 7.03967 20.7862 6.82139 20.7328 6.6123C20.6794 6.4032 20.5807 6.20843 20.4435 6.0418C20.3064 5.87517 20.1343 5.74077 19.9394 5.64815C19.7445 5.55553 19.5315 5.50696 19.3157 5.50588H7.11209L6.87821 4.19447C6.81255 3.85902 6.63268 3.55667 6.36922 3.3389C6.10575 3.12112 5.77497 3.00136 5.43315 3H3.62891C3.46276 3 3.30342 3.066 3.18593 3.18349C3.06844 3.30098 3.00244 3.46032 3.00244 3.62647C3.00244 3.79262 3.06844 3.95197 3.18593 4.06945C3.30342 4.18694 3.46276 4.25294 3.62891 4.25294H5.43315C5.4816 4.2535 5.52848 4.27024 5.56632 4.30052C5.60416 4.33079 5.63079 4.37285 5.64197 4.42L7.31256 13.8588C6.83661 13.898 6.39341 14.1168 6.073 14.471C5.7526 14.8251 5.57902 15.2879 5.58752 15.7654C5.59603 16.2429 5.78599 16.6992 6.11881 17.0417C6.45162 17.3842 6.90234 17.5871 7.37938 17.6093H17.8289C17.9951 17.6093 18.1544 17.5433 18.2719 17.4258C18.3894 17.3083 18.4554 17.149 18.4554 16.9828C18.4554 16.8167 18.3894 16.6573 18.2719 16.5398C18.1544 16.4224 17.9951 16.3564 17.8289 16.3564H7.38774C7.22159 16.3564 7.06224 16.2903 6.94475 16.1729C6.82727 16.0554 6.76127 15.896 6.76127 15.7299C6.76127 15.5637 6.82727 15.4044 6.94475 15.2869C7.06224 15.1694 7.22159 15.1034 7.38774 15.1034V15.1118Z" fill="#949494"/>
<path d="M9.05861 20.75C9.75059 20.75 10.3115 20.1891 10.3115 19.4971C10.3115 18.8051 9.75059 18.2441 9.05861 18.2441C8.36662 18.2441 7.80566 18.8051 7.80566 19.4971C7.80566 20.1891 8.36662 20.75 9.05861 20.75Z" fill="#949494"/>
<path d="M15.7407 20.75C16.4327 20.75 16.9937 20.1891 16.9937 19.4971C16.9937 18.8051 16.4327 18.2441 15.7407 18.2441C15.0488 18.2441 14.4878 18.8051 14.4878 19.4971C14.4878 20.1891 15.0488 20.75 15.7407 20.75Z" fill="#949494"/>
</svg>
