<svg width="32" height="32" viewBox="0 0 32 32" fill="none" xmlns="http://www.w3.org/2000/svg">
<g clip-path="url(#clip0_1945_11827)">
<path d="M0.436202 16.0415C0.0922137 16.1682 -0.0850926 16.5495 0.0402155 16.8948L0.458888 18.0467L3.64671 14.8588L0.436202 16.0415ZM3.45341 26.2811L5.37334 31.5609C5.40308 31.6434 5.44892 31.7191 5.5082 31.7836C5.56749 31.8482 5.63902 31.9003 5.71864 31.9369C5.80676 31.978 5.90274 31.9994 5.99994 31.9996C6.07863 31.9996 6.15594 31.9863 6.23062 31.9583L8.34924 31.177L3.45341 26.2811ZM31.9591 21.7733L29.7619 15.7322L24.4887 21.0053L27.102 20.0427C27.4446 19.912 27.8312 20.0907 27.9579 20.4373C28.0859 20.7826 27.9086 21.1666 27.5632 21.2933L24.2434 22.5173C24.1695 22.5446 24.0914 22.5586 24.0127 22.5586C23.742 22.5586 23.486 22.3919 23.3874 22.1226C23.3861 22.1186 23.3874 22.1146 23.3861 22.1106L17.7983 27.6984L31.5631 22.6266C31.9084 22.4999 32.0857 22.1186 31.9591 21.7733ZM31.8044 10.8617L21.1381 0.195359C20.8781 -0.0646315 20.4554 -0.0646315 20.1954 0.195359L0.196148 20.1947C-0.0638433 20.4546 -0.0638433 20.8773 0.196148 21.1373L10.8625 31.8036C10.924 31.8659 10.9973 31.9153 11.0781 31.9489C11.1589 31.9826 11.2456 31.9998 11.3331 31.9996C11.5038 31.9996 11.6744 31.9343 11.8051 31.8049L31.8044 11.8056C31.9293 11.6803 31.9994 11.5106 31.9994 11.3337C31.9994 11.1567 31.9293 10.987 31.8044 10.8617ZM7.80525 18.4721L5.13866 21.1386C5.01319 21.2633 4.84353 21.3332 4.66668 21.3332C4.48983 21.3332 4.32016 21.2633 4.19469 21.1386C3.9347 20.8786 3.9347 20.456 4.19469 20.196L6.86129 17.5294C7.12128 17.2694 7.54395 17.2694 7.80394 17.5294C8.06393 17.7894 8.06525 18.2107 7.80525 18.4721ZM19.3182 19.3187C18.8462 19.7907 18.2049 20.0173 17.4915 20.0173C16.3129 20.0173 14.9356 19.4001 13.7837 18.2467C12.941 17.4041 12.349 16.3961 12.1184 15.4095C11.8624 14.3096 12.0731 13.3523 12.7117 12.7123C13.3504 12.0723 14.3077 11.8616 15.4089 12.119C16.3956 12.3497 17.4035 12.9403 18.2461 13.7843C20.0981 15.6348 20.5701 18.0667 19.3182 19.3187ZM27.8046 11.8056L25.138 14.4722C25.0125 14.5969 24.8428 14.6668 24.666 14.6668C24.4891 14.6668 24.3195 14.5969 24.194 14.4722C23.934 14.2122 23.934 13.7896 24.194 13.5296L26.8606 10.863C27.1206 10.603 27.5432 10.603 27.8032 10.863C28.0632 11.123 28.0645 11.5443 27.8046 11.8056Z" fill="black"/>
</g>
<defs>
<clipPath id="clip0_1945_11827">
<rect width="32" height="32" fill="white"/>
</clipPath>
</defs>
</svg>
