<svg width="24" height="24" viewBox="0 0 24 24" fill="none" xmlns="http://www.w3.org/2000/svg">
<path d="M18.1364 4.63632H14.4547V4.22724C14.4547 3.90176 14.3254 3.5896 14.0952 3.35945C13.8651 3.1293 13.5529 3 13.2274 3H10.3638C10.0384 3 9.72621 3.1293 9.49606 3.35945C9.2659 3.5896 9.13661 3.90176 9.13661 4.22724V4.63632H5.86396C5.53848 4.63632 5.22632 4.76562 4.99617 4.99577C4.76602 5.22593 4.63672 5.53808 4.63672 5.86356V6.27265C4.63672 6.59813 4.76602 6.91028 4.99617 7.14044C5.22632 7.37059 5.53848 7.49989 5.86396 7.49989H18.1364C18.4619 7.49989 18.774 7.37059 19.0042 7.14044C19.2343 6.91028 19.3636 6.59813 19.3636 6.27265V5.86356C19.3636 5.53808 19.2343 5.22593 19.0042 4.99577C18.774 4.76562 18.4619 4.63632 18.1364 4.63632ZM9.95477 4.63632V4.22724C9.95477 4.11875 9.99787 4.0147 10.0746 3.93798C10.1513 3.86126 10.2554 3.81816 10.3638 3.81816H13.2274C13.3359 3.81816 13.44 3.86126 13.5167 3.93798C13.5934 4.0147 13.6365 4.11875 13.6365 4.22724V4.63632H9.95477ZM18.1364 8.31805H5.86396C5.73465 8.31654 5.60576 8.30285 5.47902 8.27714L5.81446 19.0159C5.82868 19.548 6.05074 20.0534 6.43306 20.4238C6.81538 20.7942 7.32756 21.0002 7.85987 20.9975H16.1413C16.6736 21.0002 17.1858 20.7942 17.5681 20.4238C17.9504 20.0534 18.1725 19.548 18.1867 19.0159L18.5221 8.27714C18.3951 8.3029 18.266 8.31659 18.1364 8.31805ZM9.3526 18.5451H9.34115C9.23461 18.5451 9.13226 18.5036 9.05586 18.4293C8.97946 18.3551 8.93505 18.2539 8.93207 18.1474L8.72753 10.784C8.72449 10.6755 8.76467 10.5702 8.83924 10.4914C8.91381 10.4125 9.01666 10.3665 9.12515 10.3635C9.23365 10.3604 9.3389 10.4006 9.41777 10.4752C9.49664 10.5497 9.54265 10.6526 9.54569 10.7611L9.75023 18.1245C9.75175 18.1783 9.74268 18.2318 9.72352 18.282C9.70435 18.3322 9.67549 18.3781 9.63856 18.4172C9.60163 18.4563 9.55737 18.4876 9.5083 18.5096C9.45924 18.5315 9.40633 18.5436 9.3526 18.5451ZM12.4093 18.136C12.4093 18.2445 12.3662 18.3485 12.2894 18.4253C12.2127 18.502 12.1087 18.5451 12.0002 18.5451C11.8917 18.5451 11.7876 18.502 11.7109 18.4253C11.6342 18.3485 11.5911 18.2445 11.5911 18.136V10.7725C11.5911 10.664 11.6342 10.56 11.7109 10.4833C11.7876 10.4066 11.8917 10.3635 12.0002 10.3635C12.1087 10.3635 12.2127 10.4066 12.2894 10.4833C12.3662 10.56 12.4093 10.664 12.4093 10.7725V18.136ZM15.0683 18.1474C15.0653 18.2539 15.0209 18.3551 14.9445 18.4293C14.8681 18.5036 14.7657 18.5451 14.6592 18.5451H14.6477C14.594 18.5436 14.5411 18.5315 14.492 18.5096C14.443 18.4876 14.3987 18.4563 14.3618 18.4172C14.3249 18.3781 14.296 18.3322 14.2768 18.282C14.2577 18.2318 14.2486 18.1783 14.2501 18.1245L14.4547 10.7611C14.4546 10.7069 14.4656 10.6532 14.487 10.6034C14.5084 10.5536 14.5397 10.5087 14.5791 10.4715C14.6185 10.4343 14.6651 10.4055 14.716 10.3869C14.7669 10.3683 14.8211 10.3603 14.8752 10.3635C14.9289 10.3649 14.9818 10.377 15.0309 10.3989C15.08 10.4209 15.1242 10.4523 15.1611 10.4913C15.1981 10.5304 15.2269 10.5763 15.2461 10.6265C15.2653 10.6768 15.2743 10.7303 15.2728 10.784L15.0683 18.1474Z" fill="#949494"/>
</svg>
