<svg width="14" height="14" viewBox="0 0 14 14" fill="none" xmlns="http://www.w3.org/2000/svg">
<g clip-path="url(#clip0_1945_12714)">
<path d="M8.28569 2.14304C8.30357 2.19064 8.30974 2.2311 8.30367 2.26384C8.29763 2.29637 8.31843 2.32333 8.36612 2.34409C8.41381 2.36486 8.43761 2.38134 8.43761 2.39309C8.43761 2.40498 8.47179 2.41395 8.54031 2.41983C8.6088 2.42581 8.64298 2.42884 8.64298 2.42884L11.4286 2.42884C11.8215 2.42884 12.1578 2.5686 12.4376 2.84855C12.7173 3.12832 12.8572 3.46456 12.8572 3.85735L12.8572 10.1431C12.8572 10.536 12.7174 10.8722 12.4376 11.1519C12.1578 11.4317 11.8215 11.5717 11.4286 11.5717L8.57152 11.5717C8.49412 11.5717 8.43326 11.5909 8.38851 11.6297C8.34395 11.6683 8.31424 11.7264 8.29929 11.8038C8.2844 11.8812 8.27543 11.951 8.27243 12.0135C8.26949 12.076 8.27092 12.1549 8.27693 12.2501C8.28284 12.3453 8.28581 12.4048 8.28581 12.4288C8.28581 12.5061 8.31411 12.573 8.37062 12.6296C8.42719 12.6861 8.49412 12.7144 8.57149 12.7144L11.4286 12.7144C12.1369 12.7144 12.7426 12.4629 13.2456 11.9599C13.7485 11.4569 14 10.8513 14 10.143L14 3.85738C14 3.14911 13.7485 2.54336 13.2456 2.04059C12.7426 1.53738 12.1369 1.28588 11.4286 1.28588L8.57139 1.28588C8.49399 1.28588 8.43311 1.30533 8.38839 1.34386C8.34382 1.38261 8.31411 1.44062 8.29916 1.51808C8.28428 1.59536 8.2753 1.66556 8.2723 1.72783C8.26936 1.79034 8.2708 1.86912 8.2768 1.96435C8.28278 2.05967 8.28569 2.11915 8.28569 2.14304Z" fill="white"/>
<path d="M0.169715 7.40183L5.02681 12.2591C5.13983 12.372 5.2738 12.4287 5.42857 12.4287C5.58334 12.4287 5.71731 12.372 5.83046 12.2591C5.94357 12.146 6.00008 12.0119 6.00008 11.8572L6.00008 9.2858L10.0001 9.2858C10.1549 9.2858 10.2888 9.22913 10.4019 9.11618C10.515 9.00306 10.5715 8.86909 10.5715 8.71432L10.5715 5.2857C10.5715 5.13096 10.515 4.99699 10.4019 4.88394C10.2887 4.77104 10.1548 4.71422 10.0001 4.71422L6.00005 4.71422L6.00005 2.14282C6.00005 1.98817 5.94354 1.85408 5.83043 1.74106C5.71731 1.62794 5.58334 1.57131 5.42854 1.57131C5.2738 1.57131 5.13983 1.62794 5.02678 1.74106L0.169715 6.59809C0.056602 6.7113 6.05696e-05 6.84508 6.05561e-05 6.99988C6.05426e-05 7.15462 0.056602 7.28872 0.169715 7.40183Z" fill="white"/>
</g>
<defs>
<clipPath id="clip0_1945_12714">
<rect width="14" height="14" fill="white"/>
</clipPath>
</defs>
</svg>
