<svg width="20" height="20" viewBox="0 0 20 20" fill="none" xmlns="http://www.w3.org/2000/svg">
<path d="M5.62484 10C5.62428 9.23393 5.6716 8.46855 5.7665 7.70835H1.34984C1.14949 8.45592 1.04587 9.22609 1.0415 10C1.04587 10.774 1.14949 11.5441 1.34984 12.2917H5.7665C5.6716 11.5315 5.62428 10.7661 5.62484 10ZM9.99984 17.7084C11.0498 17.7084 12.1832 16.1 12.7498 13.5417H7.24984C7.8165 16.1 8.94984 17.7084 9.99984 17.7084ZM12.9748 7.70835H7.02484C6.82487 9.22959 6.82487 10.7705 7.02484 12.2917H12.9748C13.0735 11.5318 13.1236 10.7663 13.1248 10C13.1236 9.23372 13.0735 8.46828 12.9748 7.70835ZM9.99984 2.29169C8.94984 2.29169 7.8165 3.90002 7.24984 6.45835H12.7498C12.1832 3.90002 11.0498 2.29169 9.99984 2.29169Z" fill="#282828"/>
<path d="M14.0332 13.5417C13.3749 16.7584 11.8332 18.9584 9.9999 18.9584C11.7499 18.9566 13.4611 18.4428 14.9226 17.4803C16.3841 16.5178 17.5321 15.1487 18.2249 13.5417H14.0332ZM5.96657 13.5417H1.7999C2.49104 15.1448 3.63511 16.5113 5.09174 17.4735C6.54836 18.4357 8.25418 18.9517 9.9999 18.9584C8.16657 18.9584 6.66657 16.7584 5.96657 13.5417ZM5.96657 6.45835C6.66657 3.24169 8.16657 1.04169 9.9999 1.04169C8.24992 1.04344 6.5387 1.55724 5.07718 2.51974C3.61567 3.48223 2.46774 4.85136 1.7749 6.45835H5.96657ZM18.6499 12.2917C18.8502 11.5441 18.9539 10.774 18.9582 10C18.9539 9.22609 18.8502 8.45592 18.6499 7.70835H14.2332C14.3281 8.46855 14.3755 9.23393 14.3749 10C14.3755 10.7661 14.3281 11.5315 14.2332 12.2917H18.6499ZM14.0332 6.45835H18.1999C17.5088 4.85526 16.3647 3.48878 14.9081 2.52658C13.4514 1.56438 11.7456 1.04831 9.9999 1.04169C11.8332 1.04169 13.3749 3.24169 14.0332 6.45835Z" fill="#282828"/>
</svg>
