<svg width="24" height="24" viewBox="0 0 24 24" fill="none" xmlns="http://www.w3.org/2000/svg">
<path d="M19 19.9999C19 21.8899 15.37 22.7499 12 22.7499C8.63 22.7499 5 21.8899 5 19.9999C5 18.9099 6.14 18.2599 7.36 17.8799C7.69 18.3299 8.04 18.7599 8.36 19.1499C7.1 19.4599 6.58 19.8599 6.53 20.0199C6.63 20.2799 7.99 21.0199 10.53 21.1899C10.97 21.1899 11.45 21.2499 11.96 21.2499C12.47 21.2499 12.96 21.2499 13.39 21.1899C15.95 20.9899 17.31 20.2799 17.39 19.9799C17.34 19.8499 16.82 19.4599 15.56 19.1499C15.9 18.7599 16.25 18.3299 16.56 17.8799C17.86 18.2599 19 18.9099 19 19.9999Z" fill="#949494"/>
<path d="M12 11.25C13.2426 11.25 14.25 10.2426 14.25 9C14.25 7.75736 13.2426 6.75 12 6.75C10.7574 6.75 9.75 7.75736 9.75 9C9.75 10.2426 10.7574 11.25 12 11.25Z" fill="#949494"/>
<path d="M12 1.25C9.94538 1.25265 7.97568 2.07001 6.52284 3.52285C5.07001 4.97568 4.25265 6.94538 4.25 9C4.25 12.84 10.25 20.75 12 20.75C13.75 20.75 19.75 12.84 19.75 9C19.7474 6.94538 18.93 4.97568 17.4772 3.52285C16.0243 2.07001 14.0546 1.25265 12 1.25ZM12 12.75C11.2583 12.75 10.5333 12.5301 9.91661 12.118C9.29993 11.706 8.81928 11.1203 8.53545 10.4351C8.25162 9.74984 8.17736 8.99584 8.32205 8.26841C8.46675 7.54098 8.8239 6.8728 9.34835 6.34835C9.8728 5.8239 10.541 5.46675 11.2684 5.32206C11.9958 5.17736 12.7498 5.25162 13.4351 5.53545C14.1203 5.81928 14.706 6.29993 15.118 6.91661C15.5301 7.5333 15.75 8.25832 15.75 9C15.75 9.99456 15.3549 10.9484 14.6517 11.6517C13.9484 12.3549 12.9946 12.75 12 12.75Z" fill="#949494"/>
</svg>
