<svg width="24" height="24" viewBox="0 0 24 24" fill="none" xmlns="http://www.w3.org/2000/svg">
<path d="M10.2013 18.8C10.1763 18.7334 10.1676 18.6767 10.1761 18.6309C10.1846 18.5854 10.1555 18.5476 10.0887 18.5186C10.0219 18.4895 9.98862 18.4664 9.98862 18.45C9.98862 18.4333 9.94076 18.4207 9.84484 18.4125C9.74895 18.4042 9.7011 18.3999 9.7011 18.3999H5.80114C5.25114 18.3999 4.78026 18.2042 4.38854 17.8123C3.99691 17.4206 3.80111 16.9499 3.80111 16.4L3.80111 7.59979C3.80111 7.0498 3.99686 6.57909 4.38854 6.18741C4.78026 5.79569 5.25114 5.59977 5.80114 5.59977L9.80114 5.59977C9.9095 5.59977 9.99471 5.57288 10.0574 5.51859C10.1197 5.46443 10.1613 5.38313 10.1823 5.27481C10.2031 5.1665 10.2157 5.06869 10.2199 4.98116C10.224 4.89373 10.222 4.78322 10.2136 4.64991C10.2053 4.51663 10.2011 4.43331 10.2011 4.39982C10.2011 4.2915 10.1615 4.19794 10.0824 4.11861C10.0032 4.03962 9.9095 4 9.80119 4L5.80114 4C4.80955 4 3.96158 4.3521 3.25734 5.05625C2.55327 5.7604 2.20117 6.60825 2.20117 7.59992L2.20117 16.3999C2.20117 17.3915 2.55327 18.2396 3.25734 18.9435C3.96158 19.648 4.80955 20.0001 5.80114 20.0001H9.80132C9.90968 20.0001 9.99492 19.9728 10.0575 19.9189C10.1199 19.8646 10.1615 19.7834 10.1824 19.675C10.2033 19.5668 10.2159 19.4685 10.2201 19.3813C10.2242 19.2938 10.2222 19.1835 10.2137 19.0502C10.2054 18.9168 10.2013 18.8335 10.2013 18.8Z" fill="#282828"/>
<path d="M21.5627 11.4374L14.7627 4.63713C14.6045 4.47899 14.4169 4.39966 14.2002 4.39966C13.9836 4.39966 13.796 4.47899 13.6376 4.63713C13.4792 4.7955 13.4001 4.98319 13.4001 5.19974V8.79979H7.80008C7.58327 8.79979 7.39584 8.87913 7.23748 9.03727C7.07911 9.19563 7 9.38319 7 9.59987V14.4C7 14.6166 7.07911 14.8042 7.23748 14.9625C7.39601 15.1205 7.5834 15.2001 7.80008 15.2001H13.4002L13.4002 18.8001C13.4002 19.0166 13.4793 19.2043 13.6376 19.3626C13.796 19.5209 13.9836 19.6002 14.2003 19.6002C14.4169 19.6002 14.6045 19.5209 14.7628 19.3626L21.5627 12.5626C21.7211 12.4041 21.8003 12.2168 21.8003 12.0001C21.8003 11.7835 21.7211 11.5957 21.5627 11.4374Z" fill="#282828"/>
</svg>
