<svg width="24" height="24" viewBox="0 0 24 24" fill="none" xmlns="http://www.w3.org/2000/svg">
<path d="M16.25 9.33325C17.5617 9.33325 18.625 8.26993 18.625 6.95825C18.625 5.64658 17.5617 4.58325 16.25 4.58325C14.9383 4.58325 13.875 5.64658 13.875 6.95825C13.875 8.26993 14.9383 9.33325 16.25 9.33325Z" stroke="#949494" stroke-width="1.58333" stroke-linecap="round" stroke-linejoin="round"/>
<path d="M6.75 14.875C8.06168 14.875 9.125 13.8117 9.125 12.5C9.125 11.1883 8.06168 10.125 6.75 10.125C5.43832 10.125 4.375 11.1883 4.375 12.5C4.375 13.8117 5.43832 14.875 6.75 14.875Z" stroke="#949494" stroke-width="1.58333" stroke-linecap="round" stroke-linejoin="round"/>
<path d="M16.25 20.4167C17.5617 20.4167 18.625 19.3534 18.625 18.0417C18.625 16.7301 17.5617 15.6667 16.25 15.6667C14.9383 15.6667 13.875 16.7301 13.875 18.0417C13.875 19.3534 14.9383 20.4167 16.25 20.4167Z" stroke="#949494" stroke-width="1.58333" stroke-linecap="round" stroke-linejoin="round"/>
<path d="M8.80078 13.6953L14.2079 16.8461" stroke="#949494" stroke-width="1.58333" stroke-linecap="round" stroke-linejoin="round"/>
<path d="M14.1999 8.15381L8.80078 11.3046" stroke="#949494" stroke-width="1.58333" stroke-linecap="round" stroke-linejoin="round"/>
</svg>
