<svg width="24" height="24" viewBox="0 0 24 24" fill="none" xmlns="http://www.w3.org/2000/svg">
<path d="M11.9993 11.3721C13.1552 11.3721 14.0923 10.435 14.0923 9.27906C14.0923 8.12311 13.1552 7.18604 11.9993 7.18604C10.8433 7.18604 9.90625 8.12311 9.90625 9.27906C9.90625 10.435 10.8433 11.3721 11.9993 11.3721Z" fill="#282828"/>
<path d="M12.0416 12.6279C11.6229 12.619 11.2067 12.6935 10.8171 12.8471C10.4275 13.0007 10.0723 13.2303 9.77233 13.5225C9.47234 13.8147 9.23349 14.1637 9.06971 14.5491C8.90593 14.9345 8.82049 15.3487 8.81836 15.7674C8.81836 16.045 8.92862 16.3112 9.12488 16.5074C9.32113 16.7037 9.58732 16.814 9.86487 16.814H14.1346C14.4122 16.814 14.6784 16.7037 14.8746 16.5074C15.0709 16.3112 15.1812 16.045 15.1812 15.7674C15.1812 14.9348 14.8504 14.1362 14.2616 13.5475C13.6728 12.9587 12.8743 12.6279 12.0416 12.6279Z" fill="#282828"/>
<path d="M12 3C10.22 3 8.47991 3.52784 6.99987 4.51677C5.51983 5.50571 4.36628 6.91131 3.68509 8.55585C3.0039 10.2004 2.82567 12.01 3.17294 13.7558C3.5202 15.5016 4.37737 17.1053 5.63604 18.364C6.89472 19.6226 8.49836 20.4798 10.2442 20.8271C11.99 21.1743 13.7996 20.9961 15.4442 20.3149C17.0887 19.6337 18.4943 18.4802 19.4832 17.0001C20.4722 15.5201 21 13.78 21 12C20.9978 9.61373 20.0489 7.32583 18.3615 5.63849C16.6742 3.95114 14.3863 3.00222 12 3ZM14.1349 18.0698H9.86512C9.56277 18.0698 9.26339 18.0102 8.98406 17.8945C8.70473 17.7788 8.45092 17.6092 8.23713 17.3954C7.80536 16.9637 7.56279 16.3781 7.56279 15.7674C7.5663 14.9666 7.78895 14.182 8.2066 13.4987C8.62426 12.8154 9.22098 12.2595 9.9321 11.8912C9.53589 11.5801 9.21494 11.1837 8.99317 10.7315C8.77139 10.2792 8.65449 9.78277 8.65117 9.27907C8.64775 8.71008 8.78936 8.1496 9.06265 7.65052C9.33593 7.15144 9.73188 6.73023 10.2131 6.42663C10.6944 6.12302 11.245 5.94705 11.8131 5.91531C12.3813 5.88357 12.9481 5.99711 13.4602 6.24521C13.9722 6.49332 14.4126 6.86781 14.7398 7.33334C15.067 7.79887 15.2701 8.34008 15.3301 8.90592C15.3901 9.47175 15.3049 10.0435 15.0826 10.5673C14.8603 11.0911 14.5082 11.5496 14.0595 11.8995C14.7728 12.2638 15.3719 12.8175 15.7913 13.4997C16.2107 14.182 16.4342 14.9666 16.4372 15.7674C16.4372 16.3781 16.1946 16.9637 15.7629 17.3954C15.3311 17.8272 14.7455 18.0698 14.1349 18.0698Z" fill="#282828"/>
</svg>
