<svg width="24" height="24" viewBox="0 0 24 24" fill="none" xmlns="http://www.w3.org/2000/svg">
<path d="M16.6772 14.9095C17.6613 13.5655 18.25 11.9147 18.25 10.125C18.25 5.64504 14.605 2 10.125 2C5.645 2 2 5.64504 2 10.125C2 14.605 5.64504 18.2501 10.125 18.2501C11.9147 18.2501 13.5657 17.6613 14.9097 16.6771L20.2325 22L22.0001 20.2324C22.0001 20.2324 16.6772 14.9095 16.6772 14.9095ZM10.125 15.75C7.02321 15.75 4.50002 13.2269 4.50002 10.125C4.50002 7.02321 7.02321 4.50002 10.125 4.50002C13.2269 4.50002 15.75 7.02321 15.75 10.125C15.75 13.2269 13.2268 15.75 10.125 15.75Z" fill="white"/>
</svg>
